<svg width="39" height="36" viewBox="0 0 39 36" fill="none" xmlns="http://www.w3.org/2000/svg">
<path d="M28.1823 18.1645C28.2173 13.3333 24.3663 9.27228 19.5001 9.06223C17.5046 8.9572 15.6141 9.55235 14.0737 10.5676C12.5334 9.55235 10.6429 8.9572 8.64739 9.06223C3.8512 9.23727 -0.034774 13.2983 0.000234702 18.1645C0.000234702 19.7049 0.805436 22.5756 2.87095 23.6609C2.80093 25.2713 2.48585 30.6976 5.91671 34.5136C7.28205 36.054 9.69765 36.089 11.098 34.5836C11.6231 34.0235 12.0782 33.2533 12.2883 32.273C12.5334 31.2578 12.7784 29.7524 12.9885 28.142C13.1635 26.8817 14.984 26.8817 15.159 28.142C15.4041 29.7174 15.6491 31.2228 15.8592 32.273C16.0692 33.2883 16.5244 34.0235 17.0495 34.5836C18.4498 36.089 20.8654 36.054 22.2308 34.5136C25.6616 30.7326 25.3466 25.2713 25.2765 23.6609C27.307 22.6806 28.1823 19.7049 28.1823 18.1645ZM5.63664 13.1583C4.97148 13.7184 4.41134 14.3836 3.95622 15.1537C3.32606 16.274 2.97598 17.5343 2.97598 18.7947C2.97598 19.1798 2.6609 19.4948 2.24079 19.4948C1.82069 19.4948 1.50561 19.1798 1.50561 18.7596C1.50561 17.2543 1.92572 15.7139 2.6609 14.4186C3.18603 13.5083 3.8512 12.7031 4.6564 12.003C4.97148 11.7579 5.42659 11.7929 5.67165 12.108C5.98673 12.4581 5.95172 12.9132 5.63664 13.1583ZM7.21203 12.038L7.072 12.108C6.96697 12.178 6.86195 12.178 6.72191 12.178C6.47685 12.178 6.19678 12.038 6.09175 11.7929C5.91671 11.4428 6.05675 10.9877 6.40683 10.8127L6.54687 10.7426C6.89696 10.5676 7.35207 10.7076 7.52711 11.0577C7.70216 11.4078 7.56212 11.8629 7.21203 12.038Z" fill="white"/>
<path d="M21.4256 0.625C15.6842 0.625 10.5729 3.39069 7.38708 7.62675C7.77218 7.55673 8.19229 7.52172 8.61239 7.48671C8.75243 7.48671 8.92747 7.48671 9.0675 7.48671C9.48761 7.48671 9.90771 7.52172 10.3278 7.55673C10.3978 7.48671 10.5029 7.38169 10.5729 7.31167C13.4786 4.40594 17.3296 2.83055 21.4256 2.83055C23.071 2.83055 24.6814 3.07561 26.2218 3.60074C26.5019 3.60074 28.2173 3.60074 28.2173 3.60074C28.2173 3.60074 28.2173 2.06036 28.2173 1.99034C26.1518 1.11512 23.8412 0.625 21.4256 0.625Z" fill="white"/>
<path d="M37.4946 11.0576C36.8644 11.0576 35.7792 11.0576 35.7792 11.0576C35.7792 11.0576 35.7792 12.528 35.7792 12.738C36.4093 14.4535 36.7594 16.2739 36.7594 18.1294C36.7594 22.2254 35.149 26.0764 32.2783 28.9821C30.2828 30.9776 27.7972 32.3779 25.1365 33.0081C24.6814 33.8833 24.1212 34.7235 23.3861 35.4937C23.3511 35.5287 23.316 35.5637 23.316 35.5987C32.1382 34.6535 39 27.1966 39 18.1644C38.9649 15.6438 38.4398 13.2282 37.4946 11.0576Z" fill="white"/>
<path d="M37.0745 5.03646H34.2738V2.23576C34.2738 1.71063 33.8537 1.29053 33.3285 1.29053H30.6679C30.1427 1.29053 29.7226 1.71063 29.7226 2.23576V5.03646H26.9219C26.3968 5.03646 25.9767 5.45657 25.9767 5.9817V8.64236C25.9767 9.16749 26.3968 9.5876 26.9219 9.5876H29.7226V12.3883C29.7226 12.9134 30.1427 13.3335 30.6679 13.3335H33.3285C33.8537 13.3335 34.2738 12.9134 34.2738 12.3883V9.5876H37.0745C37.5996 9.5876 38.0197 9.16749 38.0197 8.64236V5.9817C38.0197 5.45657 37.5996 5.03646 37.0745 5.03646ZM31.228 4.65137C31.228 4.89643 31.053 5.07147 30.8079 5.07147C30.5628 5.07147 30.3878 4.89643 30.3878 4.65137V3.63611C30.3878 3.39105 30.5628 3.21601 30.8079 3.21601C31.053 3.21601 31.228 3.39105 31.228 3.63611V4.65137ZM31.228 2.41081C31.228 2.62086 31.053 2.83091 30.8079 2.83091C30.5628 2.83091 30.3878 2.65587 30.3878 2.41081V2.30578C30.3878 2.06072 30.5628 1.88568 30.8079 1.88568C31.053 1.88568 31.228 2.06072 31.228 2.30578V2.41081Z" fill="white"/>
</svg>
